<mxfile host="app.diagrams.net" modified="2022-09-14T16:55:18.827Z" agent="5.0 (Windows NT 10.0; Win64; x64) AppleWebKit/537.36 (KHTML, like Gecko) Chrome/102.0.5005.167 YaBrowser/22.7.5.1027 Yowser/2.5 Safari/537.36" etag="LjEnx1X9Bmg6TnX58Z1I" version="19.0.3" type="github">
  <diagram id="fwrisijcZcn59z2vLqQO" name="Page-1">
    <mxGraphModel dx="1038" dy="543" grid="1" gridSize="10" guides="1" tooltips="1" connect="1" arrows="1" fold="1" page="1" pageScale="1" pageWidth="827" pageHeight="1169" math="0" shadow="0">
      <root>
        <mxCell id="0" />
        <mxCell id="1" parent="0" />
        <mxCell id="1iHjYmg95yakyDP_kbJC-1" value="Вести учет и анализ договорной деятельности ООО &quot;ЭВЕНТРЕСТ&quot;" style="rounded=0;whiteSpace=wrap;html=1;align=center;verticalAlign=middle;" vertex="1" parent="1">
          <mxGeometry x="170" y="60" width="150" height="80" as="geometry" />
        </mxCell>
        <mxCell id="1iHjYmg95yakyDP_kbJC-6" value="A0" style="text;html=1;strokeColor=none;fillColor=none;align=center;verticalAlign=middle;whiteSpace=wrap;rounded=0;" vertex="1" parent="1">
          <mxGeometry x="280" y="120" width="50" height="20" as="geometry" />
        </mxCell>
        <mxCell id="1iHjYmg95yakyDP_kbJC-8" value="Обработать заявку клиента" style="rounded=0;whiteSpace=wrap;html=1;" vertex="1" parent="1">
          <mxGeometry x="200" y="160" width="120" height="60" as="geometry" />
        </mxCell>
        <mxCell id="1iHjYmg95yakyDP_kbJC-9" value="Заказать оборудование у поставщиков" style="rounded=0;whiteSpace=wrap;html=1;" vertex="1" parent="1">
          <mxGeometry x="200" y="240" width="120" height="60" as="geometry" />
        </mxCell>
        <mxCell id="1iHjYmg95yakyDP_kbJC-10" value="Оформить продажу" style="rounded=0;whiteSpace=wrap;html=1;" vertex="1" parent="1">
          <mxGeometry x="200" y="320" width="120" height="60" as="geometry" />
        </mxCell>
        <mxCell id="1iHjYmg95yakyDP_kbJC-11" value="Сформировать отчет по договорам" style="rounded=0;whiteSpace=wrap;html=1;" vertex="1" parent="1">
          <mxGeometry x="200" y="400" width="120" height="60" as="geometry" />
        </mxCell>
        <mxCell id="1iHjYmg95yakyDP_kbJC-12" value="А1" style="text;html=1;strokeColor=none;fillColor=none;align=center;verticalAlign=middle;whiteSpace=wrap;rounded=0;" vertex="1" parent="1">
          <mxGeometry x="275" y="200" width="60" height="30" as="geometry" />
        </mxCell>
        <mxCell id="1iHjYmg95yakyDP_kbJC-13" value="А2" style="text;html=1;strokeColor=none;fillColor=none;align=center;verticalAlign=middle;whiteSpace=wrap;rounded=0;" vertex="1" parent="1">
          <mxGeometry x="275" y="280" width="60" height="30" as="geometry" />
        </mxCell>
        <mxCell id="1iHjYmg95yakyDP_kbJC-14" value="А3" style="text;html=1;strokeColor=none;fillColor=none;align=center;verticalAlign=middle;whiteSpace=wrap;rounded=0;" vertex="1" parent="1">
          <mxGeometry x="275" y="360" width="60" height="30" as="geometry" />
        </mxCell>
        <mxCell id="1iHjYmg95yakyDP_kbJC-15" value="А4" style="text;html=1;strokeColor=none;fillColor=none;align=center;verticalAlign=middle;whiteSpace=wrap;rounded=0;" vertex="1" parent="1">
          <mxGeometry x="275" y="440" width="60" height="30" as="geometry" />
        </mxCell>
        <mxCell id="1iHjYmg95yakyDP_kbJC-16" value="" style="endArrow=none;html=1;rounded=0;entryX=0;entryY=0.5;entryDx=0;entryDy=0;" edge="1" parent="1" target="1iHjYmg95yakyDP_kbJC-1">
          <mxGeometry width="50" height="50" relative="1" as="geometry">
            <mxPoint x="120" y="440" as="sourcePoint" />
            <mxPoint x="160" y="75" as="targetPoint" />
            <Array as="points">
              <mxPoint x="120" y="270" />
              <mxPoint x="120" y="100" />
            </Array>
          </mxGeometry>
        </mxCell>
        <mxCell id="1iHjYmg95yakyDP_kbJC-17" value="" style="endArrow=none;html=1;rounded=0;entryX=0.006;entryY=0.679;entryDx=0;entryDy=0;entryPerimeter=0;" edge="1" parent="1" target="1iHjYmg95yakyDP_kbJC-11">
          <mxGeometry width="50" height="50" relative="1" as="geometry">
            <mxPoint x="120" y="440" as="sourcePoint" />
            <mxPoint x="190" y="430" as="targetPoint" />
          </mxGeometry>
        </mxCell>
        <mxCell id="1iHjYmg95yakyDP_kbJC-19" value="" style="endArrow=none;html=1;rounded=0;entryX=0;entryY=0.5;entryDx=0;entryDy=0;" edge="1" parent="1" target="1iHjYmg95yakyDP_kbJC-10">
          <mxGeometry width="50" height="50" relative="1" as="geometry">
            <mxPoint x="120" y="350" as="sourcePoint" />
            <mxPoint x="170" y="320" as="targetPoint" />
          </mxGeometry>
        </mxCell>
        <mxCell id="1iHjYmg95yakyDP_kbJC-20" value="" style="endArrow=none;html=1;rounded=0;entryX=0;entryY=0.5;entryDx=0;entryDy=0;" edge="1" parent="1" target="1iHjYmg95yakyDP_kbJC-9">
          <mxGeometry width="50" height="50" relative="1" as="geometry">
            <mxPoint x="120" y="270" as="sourcePoint" />
            <mxPoint x="180" y="245" as="targetPoint" />
          </mxGeometry>
        </mxCell>
        <mxCell id="1iHjYmg95yakyDP_kbJC-21" value="" style="endArrow=none;html=1;rounded=0;entryX=0;entryY=0.5;entryDx=0;entryDy=0;" edge="1" parent="1" target="1iHjYmg95yakyDP_kbJC-8">
          <mxGeometry width="50" height="50" relative="1" as="geometry">
            <mxPoint x="120" y="190" as="sourcePoint" />
            <mxPoint x="190" y="170" as="targetPoint" />
          </mxGeometry>
        </mxCell>
        <mxCell id="1iHjYmg95yakyDP_kbJC-22" value="Заключить договор поставки" style="rounded=0;whiteSpace=wrap;html=1;" vertex="1" parent="1">
          <mxGeometry x="410" y="160" width="120" height="60" as="geometry" />
        </mxCell>
        <mxCell id="1iHjYmg95yakyDP_kbJC-23" value="Обработать поставку" style="rounded=0;whiteSpace=wrap;html=1;" vertex="1" parent="1">
          <mxGeometry x="410" y="240" width="120" height="60" as="geometry" />
        </mxCell>
        <mxCell id="1iHjYmg95yakyDP_kbJC-24" value="Оплатить поставку" style="rounded=0;whiteSpace=wrap;html=1;" vertex="1" parent="1">
          <mxGeometry x="410" y="320" width="120" height="60" as="geometry" />
        </mxCell>
        <mxCell id="1iHjYmg95yakyDP_kbJC-25" value="Подготовить заказ клиенту" style="rounded=0;whiteSpace=wrap;html=1;" vertex="1" parent="1">
          <mxGeometry x="410" y="400" width="120" height="60" as="geometry" />
        </mxCell>
        <mxCell id="1iHjYmg95yakyDP_kbJC-26" value="А21" style="text;html=1;strokeColor=none;fillColor=none;align=center;verticalAlign=middle;whiteSpace=wrap;rounded=0;" vertex="1" parent="1">
          <mxGeometry x="490" y="205" width="50" height="20" as="geometry" />
        </mxCell>
        <mxCell id="1iHjYmg95yakyDP_kbJC-27" value="А22" style="text;html=1;strokeColor=none;fillColor=none;align=center;verticalAlign=middle;whiteSpace=wrap;rounded=0;" vertex="1" parent="1">
          <mxGeometry x="490" y="285" width="50" height="20" as="geometry" />
        </mxCell>
        <mxCell id="1iHjYmg95yakyDP_kbJC-28" value="А23" style="text;html=1;strokeColor=none;fillColor=none;align=center;verticalAlign=middle;whiteSpace=wrap;rounded=0;" vertex="1" parent="1">
          <mxGeometry x="492.5" y="365" width="45" height="20" as="geometry" />
        </mxCell>
        <mxCell id="1iHjYmg95yakyDP_kbJC-29" value="А24" style="text;html=1;strokeColor=none;fillColor=none;align=center;verticalAlign=middle;whiteSpace=wrap;rounded=0;" vertex="1" parent="1">
          <mxGeometry x="495" y="445" width="45" height="20" as="geometry" />
        </mxCell>
        <mxCell id="1iHjYmg95yakyDP_kbJC-30" value="" style="endArrow=none;html=1;rounded=0;exitX=1;exitY=0.5;exitDx=0;exitDy=0;entryX=0;entryY=0.5;entryDx=0;entryDy=0;" edge="1" parent="1" source="1iHjYmg95yakyDP_kbJC-9" target="1iHjYmg95yakyDP_kbJC-23">
          <mxGeometry width="50" height="50" relative="1" as="geometry">
            <mxPoint x="335" y="280" as="sourcePoint" />
            <mxPoint x="385" y="230" as="targetPoint" />
          </mxGeometry>
        </mxCell>
        <mxCell id="1iHjYmg95yakyDP_kbJC-31" value="" style="endArrow=none;html=1;rounded=0;entryX=0;entryY=0.5;entryDx=0;entryDy=0;" edge="1" parent="1" target="1iHjYmg95yakyDP_kbJC-22">
          <mxGeometry width="50" height="50" relative="1" as="geometry">
            <mxPoint x="360" y="270" as="sourcePoint" />
            <mxPoint x="400" y="190" as="targetPoint" />
            <Array as="points">
              <mxPoint x="360" y="190" />
            </Array>
          </mxGeometry>
        </mxCell>
        <mxCell id="1iHjYmg95yakyDP_kbJC-32" value="" style="endArrow=none;html=1;rounded=0;entryX=-0.011;entryY=0.522;entryDx=0;entryDy=0;entryPerimeter=0;" edge="1" parent="1" target="1iHjYmg95yakyDP_kbJC-25">
          <mxGeometry width="50" height="50" relative="1" as="geometry">
            <mxPoint x="360" y="270" as="sourcePoint" />
            <mxPoint x="390" y="415" as="targetPoint" />
            <Array as="points">
              <mxPoint x="360" y="430" />
              <mxPoint x="410" y="430" />
            </Array>
          </mxGeometry>
        </mxCell>
        <mxCell id="1iHjYmg95yakyDP_kbJC-34" value="" style="endArrow=none;html=1;rounded=0;entryX=0;entryY=0.5;entryDx=0;entryDy=0;" edge="1" parent="1" target="1iHjYmg95yakyDP_kbJC-24">
          <mxGeometry width="50" height="50" relative="1" as="geometry">
            <mxPoint x="360" y="350" as="sourcePoint" />
            <mxPoint x="390" y="340" as="targetPoint" />
          </mxGeometry>
        </mxCell>
      </root>
    </mxGraphModel>
  </diagram>
</mxfile>
